<?xml version="1.0" standalone="no"?>
<!DOCTYPE svg PUBLIC "-//W3C//DTD SVG 20010904//EN"
        "http://www.w3.org/TR/2001/REC-SVG-20010904/DTD/svg10.dtd">
<svg version="1.0" xmlns="http://www.w3.org/2000/svg"
     width="512.000000pt" height="275.000000pt" viewBox="0 0 512.000000 275.000000"
     preserveAspectRatio="xMidYMid meet">

    <g transform="translate(0.000000,275.000000) scale(0.100000,-0.100000)"
       fill="#FFF" stroke="none">
        <path d="M200 1370 l0 -1150 245 0 245 0 0 426 c0 355 2 428 14 440 22 21 760
21 782 0 12 -12 14 -85 14 -440 l0 -426 245 0 245 0 0 835 0 835 -245 0 -245
0 0 -165 0 -165 -405 0 -405 0 0 480 0 480 -245 0 -245 0 0 -1150z"/>
        <path d="M1500 2295 l0 -225 400 0 400 0 0 -925 0 -925 245 0 245 0 0 925 0
925 650 0 c427 0 650 -3 650 -10 0 -5 14 -10 30 -10 17 0 30 -4 30 -10 0 -5 5
-10 10 -10 16 0 120 -108 120 -125 0 -8 5 -15 10 -15 6 0 10 -18 10 -40 0 -22
5 -40 10 -40 6 0 10 -30 10 -70 0 -40 -4 -70 -10 -70 -5 0 -10 -11 -10 -25 0
-14 -4 -25 -10 -25 -5 0 -10 -8 -10 -18 0 -10 -9 -24 -20 -32 -11 -8 -20 -20
-20 -28 0 -17 -25 -42 -42 -42 -8 0 -20 -9 -28 -20 -8 -11 -20 -20 -27 -20 -7
0 -13 -4 -13 -10 0 -5 -13 -10 -30 -10 -16 0 -30 -4 -30 -10 0 -6 -73 -10
-200 -10 l-200 0 0 235 0 235 -245 0 -245 0 0 -835 0 -835 245 0 245 0 0 395
0 395 120 0 c108 0 120 -2 120 -18 0 -10 9 -24 20 -32 11 -8 20 -22 20 -32 0
-10 5 -18 10 -18 6 0 10 -8 10 -18 0 -10 9 -24 20 -32 11 -8 20 -22 20 -32 0
-10 5 -18 10 -18 6 0 10 -8 10 -18 0 -10 9 -24 20 -32 11 -8 20 -21 20 -30 0
-9 9 -22 20 -30 11 -8 20 -22 20 -32 0 -10 5 -18 10 -18 6 0 10 -7 10 -16 0
-8 7 -22 15 -30 8 -9 15 -24 15 -35 0 -10 5 -19 10 -19 6 0 10 -8 10 -18 0
-10 9 -24 20 -32 11 -8 20 -21 20 -30 0 -9 9 -22 20 -30 11 -8 20 -20 20 -27
0 -7 5 -13 10 -13 6 0 10 -8 10 -18 0 -10 9 -24 20 -32 11 -8 20 -21 20 -30 0
-9 9 -22 20 -30 11 -8 20 -20 20 -28 0 -39 19 -42 299 -42 174 0 271 4 271 10
0 6 -4 10 -10 10 -5 0 -10 9 -10 20 0 11 -4 20 -10 20 -5 0 -10 8 -10 18 0 10
-9 24 -20 32 -11 8 -20 21 -20 30 0 9 -9 22 -20 30 -11 8 -20 20 -20 27 0 7
-4 13 -10 13 -5 0 -10 7 -10 16 0 9 -14 29 -30 44 -17 15 -30 35 -30 44 0 9
-4 16 -10 16 -5 0 -10 9 -10 20 0 11 -4 20 -10 20 -5 0 -13 12 -16 28 -4 15
-15 34 -26 43 -10 9 -18 24 -18 33 0 9 -4 16 -10 16 -5 0 -10 8 -10 18 0 10
-9 24 -20 32 -11 8 -20 21 -20 30 0 9 -9 22 -20 30 -11 8 -20 22 -20 32 0 10
-4 18 -10 18 -5 0 -10 8 -10 18 0 10 -9 24 -20 32 -11 8 -20 21 -20 30 0 9 -9
22 -20 30 -11 8 -20 20 -20 27 0 7 -4 13 -10 13 -5 0 -10 9 -10 20 0 11 -4 20
-10 20 -5 0 -10 9 -10 20 0 13 7 20 20 20 11 0 20 5 20 10 0 6 8 10 18 10 10
0 24 9 32 20 8 11 20 20 27 20 21 0 159 144 167 173 3 15 11 27 16 27 6 0 10
9 10 20 0 11 5 20 10 20 6 0 10 9 10 20 0 11 5 20 10 20 6 0 10 9 10 20 0 11
5 20 10 20 6 0 10 14 10 30 0 17 5 30 10 30 6 0 10 18 10 40 0 22 5 40 10 40
6 0 10 55 10 145 0 90 -4 145 -10 145 -5 0 -10 18 -10 40 0 22 -4 40 -10 40
-5 0 -10 14 -10 30 0 17 -4 30 -10 30 -5 0 -10 14 -10 30 0 17 -4 30 -10 30
-5 0 -10 7 -10 16 0 9 -8 24 -18 33 -11 9 -22 28 -26 44 -3 15 -11 27 -16 27
-6 0 -10 5 -10 10 0 14 -87 100 -101 100 -6 0 -24 14 -39 30 -15 17 -35 30
-44 30 -9 0 -16 5 -16 10 0 6 -9 10 -20 10 -11 0 -20 5 -20 10 0 6 -9 10 -20
10 -11 0 -20 5 -20 10 0 6 -13 10 -30 10 -16 0 -30 5 -30 10 0 6 -13 10 -30
10 -16 0 -30 5 -30 10 0 6 -22 10 -50 10 -27 0 -50 5 -50 10 0 7 -450 10
-1330 10 l-1330 0 0 -225z"/>
    </g>
</svg>
